# xmcd
#
# Track frame offsets:
#	150
#	10945
#	23747
#	36707
#	46942
#	59822
#	68352
#	79120
#	91445
#	105062
#	116090
#	128420
#	138102
#	150492
#	160792
#	172550
#	188192
#	198627
#
# Disc length: 2798
#
# Revision: 1
# Processed by: cddbd v1.5.1PL0 Copyright (c) Steve Scherf et al.
# Submitted via: dBpowerAMP V4.0
# Normalized: r0:DSETVAR1,TDELIM( - )
#
DISCID=db0aec12
DTITLE=Various Artist - Original Soul Music
DYEAR=1991
DGENRE=Soul
TTITLE0=Arthur Conley - Sweet Soul Music
TTITLE1=Bob and Earl - Harlem Shuffle
TTITLE2=Dobbie Gray - The "in" Crowd
TTITLE3=Betty Everett - The Shoop Shoop Song
TTITLE4=Gary "US" Bond - New Orleans
TTITLE5=The Chiffons - He's So Fine
TTITLE6=Otis Redding - Pain In My Heart
TTITLE7=The Shireless - Will You Love Me Tomorrow
TTITLE8=Dionne Warwick - Anyone Who Had a Heart
TTITLE9=Lee Dorsey - Ya Ya
TTITLE10=Jackie Wilson - Reet Petite (The Sweetest Girl In Town)
TTITLE11=LLoyd Price - Stagger Lee
TTITLE12=Wilbert Harrison - Let's Stick Together
TTITLE13=Jimmy Soul - If You Wanna Be Happy
TTITLE14=Sam and Dave - You Don't Know Like I Know
TTITLE15=Chuck Jackson and Maxine Brown - Hold On ! I'm Comin'
TTITLE16=Wilson Pickett - Everybody Needs Somebody To Love
TTITLE17=Eddie Floyd - Bring It On Home To Me
EXTD=
EXTT0=
EXTT1=
EXTT2=
EXTT3=
EXTT4=
EXTT5=
EXTT6=
EXTT7=
EXTT8=
EXTT9=
EXTT10=
EXTT11=
EXTT12=
EXTT13=
EXTT14=
EXTT15=
EXTT16=
EXTT17=
PLAYORDER=
